<svg width="41" height="48" viewBox="0 0 41 48" fill="none" xmlns="http://www.w3.org/2000/svg">
<path d="M15.2308 29.2769H14.2308V30.2769V47H1V15.2785L20.3077 1.2365L39.6154 15.2785V47H26.3846V30.2769V29.2769H25.3846H15.2308ZM16.2308 47V31.2769H24.3846V47H16.2308Z" stroke="black" stroke-width="2"/>
<rect x="8.38452" y="18.7231" width="8.33846" height="4.64615" stroke="black" stroke-width="2"/>
<rect x="23.8923" y="18.7231" width="8.33847" height="4.64615" stroke="black" stroke-width="2"/>
<mask id="path-4-inside-1" fill="white">
<ellipse cx="18.4615" cy="39.1385" rx="1.47693" ry="1.47692"/>
</mask>
<path d="M17.9385 39.1385C17.9385 38.8496 18.1727 38.6154 18.4615 38.6154V42.6154C20.3818 42.6154 21.9385 41.0587 21.9385 39.1385H17.9385ZM18.4615 38.6154C18.7504 38.6154 18.9846 38.8496 18.9846 39.1385H14.9846C14.9846 41.0587 16.5413 42.6154 18.4615 42.6154V38.6154ZM18.9846 39.1385C18.9846 39.4274 18.7504 39.6616 18.4615 39.6616V35.6616C16.5413 35.6616 14.9846 37.2182 14.9846 39.1385H18.9846ZM18.4615 39.6616C18.1727 39.6616 17.9385 39.4274 17.9385 39.1385H21.9385C21.9385 37.2182 20.3818 35.6616 18.4615 35.6616V39.6616Z" fill="black" mask="url(#path-4-inside-1)"/>
</svg>
